<?xml version="1.0" encoding="UTF-8" standalone="no"?>
<!-- Created with Inkscape (http://www.inkscape.org/) -->

<svg
   version="1.1"
   id="svg1"
   width="558.54547"
   height="372.36365"
   viewBox="0 0 558.54547 372.36365"
   xmlns="http://www.w3.org/2000/svg"
   xmlns:svg="http://www.w3.org/2000/svg">
  <defs
     id="defs1" />
  <g
     id="g1">
    <path
       style="fill:#1a3b1f;stroke:none"
       d="m 173.45455,42.545456 c 3.46511,3.643177 12.36292,3.639204 17.09091,4.530873 6.25553,1.179754 11.2706,4.24727 17.09091,6.378218 v 0.363636 c -8.51698,-1.95257 -16.75302,-5.358753 -25.45455,-6.441362 -24.01789,-2.988192 -48.22978,-0.831365 -72.36363,-0.831365 -8.36231,0 -16.735823,0.715177 -25.090915,0.349321 -4.663297,-0.204191 -11.174755,-1.655784 -15.636364,-0.349321 1.642129,3.521285 4.537764,3.342418 7.162459,5.401523 1.896979,1.488214 1.973744,3.791326 4.473905,5.042924 6.351524,3.179643 17.034824,1.191917 24.000005,1.191917 16.59661,0 32.98158,-0.06971 49.45454,1.058372 4.97952,0.340998 10.38916,0.07329 15.27273,0.928999 8.62066,1.510521 17.67066,5.707032 25.81818,8.852983 9.94634,3.84051 17.57016,10.10052 25.81819,16.674251 3.22889,2.573442 6.81278,8.02255 10.90909,8.849032 C 230.05476,87.83907 224.81717,83.108556 219.63637,78.79124 210.87802,71.492611 201.68748,66.297676 190.9091,62.545456 188.15055,61.58514 185.44586,60.07078 182.54546,59.636365 v -0.363636 c 7.00677,0.572354 13.90097,3.549982 20.36364,6.107733 26.46984,10.47603 48.43071,32.911333 50.51292,62.619538 0.66843,9.53687 -3.00531,16.6185 -5.42201,25.45455 2.3425,-0.39367 3.52954,-3.0771 4.4088,-5.09091 2.22607,-5.09857 3.62531,-10.55384 4.68211,-16 h 0.36363 c 0,34.55833 -37.92569,54.47741 -66.54545,63.1891 -5.74236,1.74796 -11.60624,3.87456 -17.45455,5.16892 -5.32342,1.1782 -11.34879,2.35945 -16.72727,2.87682 -4.91962,0.47324 -9.52858,-0.25146 -14.18182,1.80585 -10.1331,4.48009 -18.82795,13.89335 -25.26459,22.59568 -2.67479,3.6163 -5.90832,7.3663 -7.46268,11.63636 h -0.36364 c 2.51599,-13.55271 1.09091,-28.45241 1.09091,-42.18182 h 0.36363 c 0.34675,8.07453 0.2291,16.31856 0.98177,24.36364 0.11284,1.20603 -1.2058,7.40516 0.83669,7.40516 1.81122,0 1.8156,-4.0635 1.81791,-5.22334 0.0116,-5.82793 0.009,-11.63304 0,-17.45455 -0.04,-24.9187 -1.73649,-50.02741 -0.0326,-74.90909 0.50732,-7.40825 -0.73044,-14.81292 -0.0292,-22.18182 0.12049,-1.26607 -0.706,-5.83993 0.59709,-6.45231 2.72341,-1.27985 2.73927,4.4949 2.73738,5.72504 v 21.45454 c 0,30.08547 0.72727,60.12274 0.72727,90.18182 8.05825,-1.23806 5.98667,-12.55113 6.18182,-18.18182 h 0.36363 l 1.81818,5.09091 c 0,-26.55759 -0.36363,-53.0287 -0.36363,-79.63636 0,-6.50011 0.62126,-13.17987 0.34932,-19.63637 -0.0392,-0.93066 -0.36223,-6.43927 2.08615,-4.81762 1.3576,0.89919 0.84309,3.80297 0.83698,5.18126 -0.0215,4.8449 2.8e-4,9.69429 2.8e-4,14.54545 v 61.45455 17.81818 c 0,1.39782 -0.66376,5.48225 1.82519,4.86448 3.55215,-0.88165 7.84552,-5.19471 11.26572,-6.98541 1.31609,-0.68908 3.06045,-1.13754 3.67508,-2.62627 0.87941,-2.13006 0.0204,-4.69402 -0.0334,-6.88916 l -0.36364,-15.27273 c -0.41577,-16.96819 -0.0326,-33.94056 -0.005,-50.90909 0.0102,-6.36996 0.2041,-13.13024 0.70484,-19.48205 0.16971,-2.15287 1.34954,-6.128724 -0.24748,-7.968856 -1.5953,-1.838135 -5.83892,-2.099654 -8.09372,-2.414684 -7.60033,-1.061923 -15.96156,-2.088113 -23.63637,-1.345415 -4.54546,0.439875 -10.39834,0.830389 -14.54545,2.767956 -1.168724,0.546031 -3.30632,1.20672 -3.957076,2.403209 -0.757369,1.392489 0.664328,3.89098 0.971102,5.31257 0.809271,3.7502 0.484575,7.81549 0.43912,11.63636 -0.196466,16.51385 -1.507601,33.31266 0.06313,49.81818 0.746072,7.8398 0.209772,15.81177 1.13299,23.63637 0.140703,1.19247 -0.289773,7.19753 1.350734,7.19753 1.48619,0 1.09085,-3.03538 1.09091,-3.9248 2.9e-4,-4.49785 -0.36364,-8.94896 -0.36364,-13.45455 0,-19.1796 -0.36363,-38.24299 -0.36363,-57.45455 h 0.72727 c 0,11.55853 0.38383,23.00464 0.52104,34.54546 0.033,2.77401 0.0907,5.58345 0.21324,8.36195 0.0334,0.7563 0.39348,2.63485 1.59877,1.78844 0.97821,-0.68695 0.57604,-2.94944 0.57604,-3.96857 v -11.27273 c 0,-8.57981 0.36103,-17.24734 -0.0143,-25.81818 -0.28198,-6.43906 -1.1591,-14.04295 0.0143,-20.36364 h 0.72727 c 1.10754,4.49558 0.46487,8.90314 0.48682,13.45455 0.0362,7.50887 0.0669,15.00688 -0.11785,22.54545 -0.54968,22.4328 -0.26192,44.85842 -0.004,67.27273 0.10448,9.07755 0.36223,18.1683 0.36223,27.27273 0,4.30586 0.74175,9.14053 -1.17985,13.09091 -4.686182,9.6337 -7.408516,19.64253 -10.580535,29.81818 -0.446589,1.43262 -2.926203,9.58698 -0.233998,9.58698 1.884255,0 2.244707,-3.18073 2.664972,-4.49607 1.489414,-4.66158 3.188399,-9.45756 5.423691,-13.81818 5.18071,-10.1066 11.23446,-19.15967 18.711,-27.63637 4.38701,-4.97385 9.53842,-10.41437 15.74018,-13.09091 -2.41716,2.22641 -6.77731,4.84555 -7.9408,8.00027 -1.31132,3.5556 -0.0592,8.95557 -0.0592,12.72701 0,7.41184 0.71661,14.8129 0.71661,22.18182 0,6.03755 -1.34664,10.99722 2.19248,16.36363 -4.54574,-3.3558 -3.63636,-9.88769 -3.63636,-14.90909 0,-8.7106 -0.374,-17.49012 -0.71268,-26.18182 -0.1217,-3.12313 0.65374,-6.37154 -0.0146,-9.45454 -2.88019,1.75168 -7.48699,6.12424 -8.4913,9.45454 -0.75396,2.50016 0.12668,5.43617 0.12767,8 0.002,5.47261 -0.36364,10.88887 -0.36364,16.36364 0,4.9292 2.19036,13.65532 -3.63636,15.63636 0.69851,-8.85054 0.72727,-17.65261 0.72727,-26.54545 0,-2.52688 1.49151,-7.30329 -1.09091,-8.72728 -1.75617,2.6881 -2.04615,5.56805 -2.18182,8.72728 h -0.36363 v -4 h -0.36364 c -3.15379,5.54179 -1.42401,12.14096 -2.54545,18.18182 h -0.36364 l -1.09091,-4.72728 h -0.72727 l -0.36364,0.36364 c 1.00302,5.4029 0.37169,13.25559 -4.0014,17.01347 -2.51203,2.15863 -7.181108,3.28594 -8.725875,6.25926 5.084995,1.54177 11.490415,0.12908 16.727275,0.0196 10.31717,-0.21562 20.56033,0.93479 30.90909,0.66526 3.64505,-0.0949 7.26037,-0.31962 10.90909,-0.32127 0.95827,-4.4e-4 2.95633,0.32329 3.39563,-0.84286 0.90217,-2.39484 -3.21342,-3.1851 -4.34343,-4.34905 -1.86209,-1.91802 -2.29321,-5.71451 -2.32352,-8.26263 -0.22246,-18.69878 -0.0528,-37.32888 -0.001,-56 3.72447,0 6.90463,-1.23984 10.54545,-1.71296 7.28851,-0.94713 15.23776,-1.08352 22.18182,-3.74159 0.85435,5.90581 10.49687,1.59291 14.18182,0.36364 11.64511,-3.8847 23.09641,-8.50162 34.18182,-13.73851 3.08913,-1.45934 9.95341,-4.41029 10.54545,-8.07968 l -10.54545,5.09091 v -0.36363 c 4.31134,-1.8602 8.10702,-5.16227 12,-7.75759 5.32364,-3.5491 11.10036,-7.35343 15.63104,-11.8841 12.93958,-12.93959 18.58831,-30.04151 20.00532,-47.99468 h 0.36364 c 0.51185,13.65468 -4.34053,28.22279 -12.27133,39.27273 -2.60065,3.62347 -5.61641,7.64167 -8.85354,10.69977 -1.87151,1.768 -5.00135,3.73045 -5.42059,6.39114 4.63539,-0.93477 9.07504,-6.65907 12.36364,-9.80387 10.4041,-9.94917 16.7803,-25.90711 17.41666,-40.37795 0.29976,-6.81629 -1.12653,-13.26771 -1.74776,-20 -2.10427,-22.804289 -18.00845,-44.54155 -37.12344,-56.891692 -8.41571,-5.437367 -18.78452,-8.732023 -28.00001,-12.567073 -8.76899,-3.649236 -17.55051,-5.849476 -26.90909,-7.418901 -4.60952,-0.773016 -9.19933,-1.892822 -13.81818,-0.940518 m 192.00001,0 c 3.46511,3.643177 12.36292,3.639204 17.09091,4.530873 6.25554,1.179754 11.27059,4.24727 17.09091,6.378218 v 0.363636 c -8.51701,-1.95257 -16.75302,-5.358753 -25.45455,-6.441362 -24.01789,-2.988192 -48.22976,-0.831365 -72.36364,-0.831365 -8.3623,0 -16.73582,0.715177 -25.09091,0.349321 -4.66331,-0.204191 -11.17476,-1.655806 -15.63636,-0.349321 1.64213,3.521262 4.53779,3.342418 7.16246,5.401523 1.897,1.488214 1.97372,3.791304 4.4739,5.042924 6.35152,3.179643 17.03485,1.191917 24,1.191917 16.59662,0 32.98158,-0.06971 49.45455,1.058372 4.97951,0.340998 10.38916,0.07329 15.27273,0.928999 8.62065,1.510521 17.67067,5.707032 25.81818,8.852983 9.94633,3.840532 17.57018,10.10052 25.81818,16.674251 3.22887,2.573442 6.81286,8.022572 10.90909,8.849032 -1.87043,-6.44802 -6.89839,-11.385365 -12,-15.459606 -9.09228,-7.261208 -18.04772,-12.696001 -29.09091,-16.540395 -2.75856,-0.960338 -5.4632,-2.474676 -8.36363,-2.909091 v -0.363636 c 7.00679,0.572354 13.90096,3.549982 20.36363,6.107733 26.46964,10.475963 48.43102,32.911378 50.51292,62.619538 0.66833,9.53694 -3.00541,16.61839 -5.42201,25.45455 2.34251,-0.39367 3.52952,-3.07708 4.40878,-5.09091 2.22608,-5.09852 3.62536,-10.55384 4.68213,-16 h 0.36364 c 0,34.55835 -37.92569,54.47741 -66.54546,63.1891 -5.74236,1.74796 -11.60624,3.87456 -17.45454,5.16892 -5.3234,1.1782 -11.34879,2.35945 -16.72728,2.87682 -4.91963,0.47326 -9.52856,-0.25146 -14.18182,1.80585 -10.13307,4.48006 -18.82799,13.89335 -25.2646,22.59568 -2.67478,3.6163 -5.90823,7.36634 -7.46267,11.63636 h -0.36364 c 2.5161,-13.55265 1.09091,-28.45246 1.09091,-42.18182 h 0.36364 c 0.34664,8.07451 0.22909,16.31858 0.98176,24.36364 0.11283,1.20605 -1.20577,7.40516 0.83671,7.40516 1.81121,0 1.81559,-4.06352 1.81789,-5.22334 0.0116,-5.82793 0.009,-11.63304 0,-17.45455 -0.0401,-24.9187 -1.73646,-50.02743 -0.0325,-74.90909 0.50732,-7.40825 -0.73047,-14.81295 -0.0292,-22.18182 0.12049,-1.26605 -0.70601,-5.83993 0.59708,-6.45231 2.72341,-1.27985 2.73926,4.49492 2.73737,5.72504 v 21.45454 c 0,30.08552 0.72727,60.12274 0.72727,90.18182 8.05824,-1.23806 5.98671,-12.55113 6.18182,-18.18182 h 0.36364 l 1.81818,5.09091 c 0,-26.55759 -0.36364,-53.0287 -0.36364,-79.63636 0,-6.50009 0.6213,-13.17987 0.34932,-19.63637 -0.0392,-0.93066 -0.36219,-6.43925 2.08614,-4.81762 1.3576,0.89919 0.84309,3.80295 0.83698,5.18126 -0.0215,4.84493 2.9e-4,9.69429 2.9e-4,14.54545 v 61.45455 17.81818 c 0,1.39782 -0.66375,5.48225 1.8252,4.86448 3.55213,-0.88165 7.84554,-5.19473 11.26571,-6.98541 1.3161,-0.68908 3.06048,-1.13757 3.67509,-2.62627 0.87942,-2.1301 0.0204,-4.69402 -0.0334,-6.88916 l -0.36364,-15.27273 c -0.41563,-16.96819 -0.0326,-33.94058 -0.005,-50.90909 0.0102,-6.36998 0.20412,-13.13022 0.70481,-19.48205 0.1697,-2.15289 1.34959,-6.12868 -0.24747,-7.968856 -1.5953,-1.838157 -5.83887,-2.099632 -8.09371,-2.414684 -7.60032,-1.061923 -15.96156,-2.088113 -23.63636,-1.345415 -4.54548,0.439875 -10.39835,0.830389 -14.54545,2.767956 -1.16868,0.546009 -3.30633,1.20672 -3.95708,2.403209 -0.75737,1.392512 0.66433,3.89098 0.9711,5.31257 0.80928,3.7502 0.48455,7.81554 0.43912,11.63636 -0.19638,16.51387 -1.5077,33.31268 0.0631,49.81818 0.74612,7.8398 0.20979,15.81177 1.13302,23.63637 0.14069,1.19247 -0.28982,7.19753 1.35072,7.19753 1.48623,0 1.09084,-3.0354 1.0909,-3.9248 2.9e-4,-4.49785 -0.36363,-8.94896 -0.36363,-13.45455 0,-19.1796 -0.36364,-38.24297 -0.36364,-57.45455 h 0.72727 c 0,11.55851 0.38368,23.00466 0.52104,34.54546 0.033,2.77404 0.0907,5.58343 0.21325,8.36195 0.0334,0.75628 0.39351,2.63483 1.59877,1.78844 0.97822,-0.68697 0.57604,-2.94944 0.57604,-3.96857 v -11.27273 c 0,-8.57981 0.36097,-17.24734 -0.0143,-25.81818 -0.28196,-6.43904 -1.15916,-14.04297 0.0143,-20.36364 h 0.72727 c 1.10753,4.49556 0.46486,8.90314 0.48681,13.45455 0.0362,7.50887 0.0668,15.00688 -0.11785,22.54545 -0.54949,22.43284 -0.26181,44.85838 -0.004,67.27273 0.10445,9.07753 0.36224,18.16832 0.36224,27.27273 0,4.30588 0.74174,9.14051 -1.17986,13.09091 -4.68617,9.6337 -7.40861,19.64253 -10.58053,29.81818 -0.44657,1.43262 -2.9262,9.58698 -0.23399,9.58698 1.88425,0 2.24471,-3.18073 2.66497,-4.49607 1.48939,-4.66158 3.18843,-9.45756 5.42369,-13.81818 5.18065,-10.10663 11.23447,-19.15967 18.71099,-27.63637 4.387,-4.9739 9.53846,-10.41437 15.74019,-13.09091 -2.41715,2.22643 -6.77733,4.84555 -7.94079,8.00027 -1.31132,3.55562 -0.0592,8.95554 -0.0592,12.72701 0,7.41184 0.71662,14.8129 0.71662,22.18182 0,6.03753 -1.34664,10.99722 2.19247,16.36363 -4.624,-3.41362 -3.63637,-10.17325 -3.63637,-15.27273 0,-8.58817 -0.37873,-17.2484 -0.71269,-25.81818 -0.12171,-3.12313 0.65374,-6.37154 -0.0146,-9.45454 -2.88017,1.75168 -7.48699,6.12424 -8.4913,9.45454 -0.75395,2.50014 0.12667,5.43617 0.12766,8 0.002,5.47261 -0.36363,10.88887 -0.36363,16.36364 0,4.92922 2.19036,13.65532 -3.63637,15.63636 0.69856,-8.85054 0.72728,-17.65261 0.72728,-26.54545 0,-2.5269 1.49152,-7.30331 -1.09091,-8.72728 -1.7562,2.68808 -2.04619,5.56805 -2.18182,8.72728 h -0.36364 v -4 h -0.36363 c -3.15386,5.54177 -1.42397,12.14098 -2.54546,18.18182 h -0.36363 l -1.09091,-4.72728 h -0.72728 l -0.36363,0.36364 c 1.00306,5.40288 0.37167,13.25562 -4.0014,17.01347 -2.51205,2.15865 -7.18107,3.28594 -8.72588,6.25926 5.08497,1.54177 11.49044,0.12908 16.72728,0.0196 10.31716,-0.21562 20.56032,0.93479 30.90909,0.66526 3.64502,-0.0949 7.26039,-0.31962 10.90909,-0.32127 0.95825,-4.4e-4 2.95632,0.32329 3.39562,-0.84286 0.90217,-2.39484 -3.21342,-3.18512 -4.34342,-4.34905 -1.8621,-1.91804 -2.29323,-5.71449 -2.32353,-8.26263 -0.22237,-18.69878 -0.0529,-37.3289 -10e-4,-56 3.7245,0 6.90461,-1.23984 10.54546,-1.71296 7.28853,-0.94713 15.23777,-1.0835 22.18182,-3.74159 0.8544,5.90581 10.49685,1.59291 14.18182,0.36364 11.6451,-3.88468 23.09641,-8.5016 34.18181,-13.73851 3.08914,-1.45934 9.95348,-4.41031 10.54546,-8.07968 l -10.54546,5.09091 v -0.36363 c 4.31131,-1.86018 8.10707,-5.16229 12,-7.75759 5.32365,-3.54908 11.10037,-7.35343 15.63104,-11.8841 12.93959,-12.93957 18.58834,-30.04153 20.00533,-47.99468 h 0.36364 c 0.51198,13.65465 -4.34065,28.22277 -12.27131,39.27273 -2.60059,3.62347 -5.61648,7.64174 -8.85356,10.69977 -1.87149,1.76796 -5.00142,3.73047 -5.42059,6.39114 4.63534,-0.93475 9.07502,-6.65907 12.36364,-9.80387 10.40412,-9.94917 16.78027,-25.90713 17.41663,-40.37795 0.29977,-6.81627 -1.12659,-13.26771 -1.74773,-20 -2.10405,-22.804222 -18.00861,-44.541638 -37.12345,-56.891692 -8.4157,-5.437367 -18.78453,-8.732023 -28,-12.567073 -8.769,-3.649236 -17.55052,-5.849476 -26.90909,-7.418901 -4.60951,-0.773016 -9.19933,-1.892844 -13.81818,-0.940518 M 208.00001,53.939388 c 0.2812,0 0.0583,0.181064 -0.12121,0.121227 l 0.12121,-0.121227 m 192,0 c 0.28121,0 0.0583,0.181064 -0.12123,0.121227 l 0.12123,-0.121227 m -217.45455,4.969705 v 0.363636 l -2.90909,-0.363636 h 2.90909 m 192.00001,0 v 0.363636 l -2.9091,-0.363636 h 2.9091 M 96.727276,72.363639 c 4.081984,5.359796 -4.017545,9.445445 -8.32969,6.024125 -4.448786,-3.529718 -2.658675,-9.740567 1.784235,-12.179 C 95.340213,63.377643 102.43695,64.72359 108,64.727275 v 0.363636 l -0.72727,1.454546 c 8.37335,0 17.13537,0.439852 25.45455,-0.492432 4.97225,-0.557218 11.60993,-1.429244 16.30162,1.560613 4.7392,3.020131 3.24038,13.964046 -3.21071,11.979227 -2.09403,-0.644288 -7.68861,-5.752908 -2.53255,-6.48007 2.05149,-0.289329 2.47826,4.12358 4.61336,2.646462 4.52106,-3.127818 -1.1135,-8.525834 -4.62627,-8.81088 -5.67709,-0.460671 -10.95146,5.18537 -9.67508,10.869807 0.67121,2.989302 3.73746,6.120428 6.40235,7.447821 6.4739,3.224676 15.88709,3.375599 21.05697,-2.007591 2.77257,-2.886963 6.2326,-12.926825 0.39758,-14.531139 l -0.36364,8.363636 c -1.72343,-5.885387 0.67798,-11.068248 -5.81818,-15.102694 -5.56189,-3.454213 -15.10552,-2.643955 -21.45454,-2.049938 -13.1767,1.232843 -26.72607,-1.083075 -40.000005,0.407115 -6.595426,0.740434 -13.842574,2.223766 -16.693327,9.109154 -6.670538,16.111262 17.946556,26.106601 26.652352,12.726984 2.67824,-4.116078 2.23449,-11.152721 -1.99185,-14.091753 -4.854127,-3.375599 -12.524726,-3.425182 -13.352979,3.910223 -0.794994,7.040883 8.273876,7.691851 8.294895,0.363637 m 192.000004,0 c 4.08197,5.359774 -4.01753,9.445468 -8.32968,6.024125 -4.44877,-3.529741 -2.65871,-9.740545 1.78423,-12.179 5.15838,-2.831121 12.25515,-1.485174 17.81818,-1.481489 v 0.363636 l -0.72727,1.454546 c 8.37335,0 17.13534,0.439874 25.45454,-0.492432 4.97226,-0.557218 11.60993,-1.429244 16.30163,1.560613 4.73919,3.020109 3.24039,13.964046 -3.21072,11.979227 -2.09404,-0.644288 -7.68861,-5.752886 -2.53254,-6.48007 2.0515,-0.289329 2.47825,4.12358 4.61335,2.646462 4.52111,-3.127818 -1.1135,-8.525834 -4.62626,-8.81088 -5.67709,-0.460671 -10.95144,5.185348 -9.67507,10.869807 0.67121,2.98928 3.73746,6.120428 6.40234,7.447821 6.4739,3.224676 15.8871,3.375577 21.05695,-2.007591 2.77255,-2.886963 6.23265,-12.926802 0.3976,-14.531139 l -0.36364,8.363636 c -1.72341,-5.885409 0.67798,-11.068226 -5.81818,-15.102694 -5.56188,-3.454235 -15.10552,-2.643955 -21.45455,-2.049938 -13.17669,1.232843 -26.72605,-1.083075 -40,0.407115 -6.59537,0.740434 -13.84268,2.223788 -16.69334,9.109154 -6.67036,16.111328 17.94643,26.106557 26.65237,12.726984 2.67827,-4.116056 2.23444,-11.152766 -1.99186,-14.091753 -4.85411,-3.375577 -12.52474,-3.425204 -13.35296,3.910223 -0.79494,7.040883 8.27384,7.691828 8.29488,0.363637 m -50.18182,-7.636364 c 4.22907,2.850208 12.94296,6.328169 13.81818,12 l -10.18181,-8.567627 -3.63637,-3.432373 m 192.00001,0 c 4.22905,2.850164 12.94305,6.328214 13.81818,12 l -10.18182,-8.567627 -3.63636,-3.432373 m -314.18183,6.545454 c -0.55526,1.189831 -1.03937,2.300227 -1.07099,3.636364 -0.10183,4.302957 5.46103,7.219771 8.45174,3.516557 1.469,-1.81898 1.00348,-4.428711 0.25561,-6.425648 2.71039,-0.05595 6.58616,0.07897 9.0696,-1.088934 1.86009,-0.874756 1.91496,-3.632613 -0.34934,-3.942782 -6.28928,-0.861506 -13.94886,0.09679 -20.35662,0.09679 -1.83426,0 -5.23669,-0.758412 -6.68406,0.789306 -1.01037,1.080411 0.0348,2.599632 1.24551,2.86448 2.594,0.567449 6.71147,0.495761 9.43855,0.553866 m 192.00001,0 c -0.55527,1.189809 -1.03938,2.300249 -1.07098,3.636364 -0.10181,4.302934 5.46098,7.219794 8.45172,3.516557 1.469,-1.818958 1.00347,-4.428688 0.25562,-6.425648 2.71038,-0.05595 6.58614,0.07897 9.06958,-1.088934 1.86009,-0.874756 1.91497,-3.632613 -0.34932,-3.942782 -6.28929,-0.861506 -13.94887,0.09679 -20.35662,0.09679 -1.83428,0 -5.23669,-0.758412 -6.68406,0.789306 -1.01037,1.080434 0.0348,2.599632 1.24549,2.86448 2.59399,0.567449 6.71147,0.495761 9.43857,0.553866 m -198.90741,0.633834 c -4.5356,1.738903 -1.77158,9.778431 2.52777,8.232045 3.96136,-1.424827 2.51096,-10.163841 -2.52777,-8.232045 m 192,0 c -4.53569,1.738925 -1.77153,9.778409 2.52779,8.232045 3.96138,-1.424827 2.51096,-10.163841 -2.52779,-8.232045 M 128.00562,72.27526 c -4.31395,1.580477 -2.59567,9.754838 2.17059,8.071245 3.96669,-1.401168 2.43665,-9.759167 -2.17059,-8.071245 m 192,0 c -4.31394,1.580455 -2.59568,9.754838 2.17059,8.071245 3.96667,-1.401146 2.43668,-9.759167 -2.17059,-8.071245 m -159.27834,5.179288 -0.36364,0.363636 0.36364,-0.363636 m 192,0 -0.36363,0.363636 0.36363,-0.363636 m -236,5.608864 c -6.25115,0.830878 -13.09456,1.93537 -18.545459,5.34708 -1.061468,0.664373 -6.145774,3.77286 -4.142534,5.397594 2.251698,1.826239 9.899893,-1.683283 12.506173,-2.141135 9.28535,-1.631193 18.66856,-1.310525 28,-0.332476 3.41884,0.358332 9.08033,3.212381 12.34232,1.900657 5.39744,-2.170454 -4.39304,-5.559148 -5.79687,-6.07828 -7.59043,-2.806885 -16.16712,-5.182862 -24.36363,-4.09344 m 192,0 c -6.25115,0.830878 -13.09455,1.935348 -18.54545,5.34708 -1.06148,0.664373 -6.14576,3.77286 -4.14254,5.397594 2.25167,1.826239 9.89993,-1.683283 12.50617,-2.141135 9.28536,-1.631193 18.66855,-1.310525 28,-0.332476 3.41886,0.358332 9.08033,3.212381 12.34231,1.900657 5.39744,-2.170454 -4.393,-5.559148 -5.79685,-6.07828 -7.59044,-2.806885 -16.16713,-5.182862 -24.36364,-4.09344 m -168.36364,20.209318 0.0325,23.63636 0.89758,11.63637 1.40096,4.72727 -0.14927,31.27273 h -0.36364 c -1.41925,-7.64498 -0.36363,-16.24589 -0.36363,-24 0,-2.69866 0.94882,-7.45708 -1.09091,-9.45455 l -0.36364,20.72728 c -3.48095,-2.61415 -1.28532,-10.77586 -1.46857,-14.54546 -0.69457,-14.28791 -1.49531,-29.72669 0.014,-44 h 1.45454 m 192.00001,0 0.0325,23.63636 0.8976,11.63637 1.40094,4.72727 -0.14926,31.27273 h -0.36363 c -1.41932,-7.64489 -0.36364,-16.24594 -0.36364,-24 0,-2.69869 0.94882,-7.45705 -1.09091,-9.45455 l -0.36363,20.72728 c -3.48094,-2.61413 -1.28534,-10.77588 -1.46858,-14.54546 -0.69453,-14.288 -1.49514,-29.72658 0.014,-44 h 1.45455 m -118.54546,89.09091 c -2.63827,3.07773 -7.98775,4.9826 -11.63637,6.65769 -10.70494,4.91469 -23.30458,10.06828 -35.27272,10.06959 v -0.36364 l 21.45454,-6.06201 25.45455,-10.30163 m 192,0 c -2.63827,3.07768 -7.98779,4.9826 -11.63636,6.65769 -10.70495,4.91469 -23.30458,10.06828 -35.27273,10.06959 v -0.36364 l 21.45455,-6.06201 25.45454,-10.30163 M 158.18182,230.9091 c 22.08874,0 45.45104,-6.41533 65.09091,-16.22896 6.24086,-3.11843 16.48569,-6.8517 19.63637,-13.58922 -2.73018,0.48699 -4.91131,2.33536 -7.27273,3.68266 -4.35327,2.48373 -8.89913,5.02836 -13.45455,7.11419 -13.26347,6.07304 -28.01646,10.17394 -42.18181,13.4812 -5.01051,1.16983 -10.18434,2.5787 -15.27273,3.31061 -2.09454,0.3013 -5.32297,0.28796 -6.54546,2.22952 m 192.00001,0 c 22.08873,0 45.45104,-6.41531 65.09091,-16.22896 6.24086,-3.11843 16.48575,-6.8517 19.63636,-13.58922 -2.7302,0.48699 -4.91131,2.33536 -7.27272,3.68266 -4.3533,2.48373 -8.89911,5.02836 -13.45455,7.11419 -13.26349,6.07304 -28.01647,10.17394 -42.18182,13.4812 -5.01054,1.16983 -10.1843,2.5787 -15.27273,3.31061 -2.09457,0.3013 -5.32293,0.28798 -6.54545,2.22952 M 229.81819,202.18182 v 0.36364 l -1.45455,0.36364 1.45455,-0.72728 m 192,0 v 0.36364 l -1.45454,0.36364 1.45454,-0.72728 m -193.81818,0.72728 -0.36364,0.36363 0.36364,-0.36363 m 192,0 -0.36363,0.36363 0.36363,-0.36363 m -281.09091,23.63636 -2.54546,1.81818 v -0.36363 l 2.54546,-1.45455 m 192,0 -2.54545,1.81818 v -0.36363 l 2.54545,-1.45455 m -195.63637,5.09091 v 28.72727 h -0.36364 l -0.73232,-20.72727 0.36869,-8 h 0.72727 m 192.00001,0 v 28.72727 h -0.36364 l -0.73233,-20.72727 0.36869,-8 h 0.72728 m -192.00001,52.36364 2.18182,3.27273 -2.18182,-3.27273 m 192.00001,0 2.18182,3.27273 -2.18182,-3.27273 M 92.727275,294.69978 c -3.193592,0.41955 -13.532193,2.1159 -7.233443,7.32575 3.47239,2.87212 11.402023,0.98134 15.597078,1.00562 14.6448,0.0848 29.30727,-0.47668 44,-0.11672 4.2324,0.10369 8.49236,0.70288 12.72728,0.72168 1.59053,0.007 3.68808,0.19566 4.98064,-0.93211 1.90507,-1.6622 1.27932,-5.67214 -0.99663,-6.65152 -4.28433,-1.84362 -9.97659,-0.55493 -14.52947,-0.97503 -4.10946,-0.37918 -8.27993,0.84663 -12.36364,0.52496 -7.83624,-0.61723 -15.72328,-0.36112 -23.63636,-0.70763 -6.029,-0.264 -12.534734,-0.98461 -18.545455,-0.195 m 192.000005,0 c -3.1936,0.41955 -13.53218,2.11588 -7.23344,7.32575 3.47239,2.87212 11.40203,0.98134 15.59708,1.00562 14.6448,0.0848 29.30726,-0.47668 44,-0.11672 4.2324,0.10369 8.49234,0.70288 12.72727,0.72168 1.59051,0.007 3.6881,0.19566 4.98065,-0.93211 1.90505,-1.66222 1.27932,-5.67216 -0.99663,-6.65152 -4.28436,-1.84362 -9.97658,-0.55493 -14.52947,-0.97503 -4.10944,-0.37918 -8.27992,0.84663 -12.36364,0.52496 -7.83625,-0.61723 -15.7233,-0.36112 -23.63636,-0.70763 -6.02901,-0.264 -12.53474,-0.98461 -18.54546,-0.195 M 78.545457,304.8816 c -2.712192,0.36046 -6.073736,0.49534 -8.347923,2.21296 -1.179055,0.89051 -1.678411,2.59282 -3.002247,3.24607 -1.792636,0.88459 -5.797036,2.59224 -3.338102,5.50198 2.464433,2.91623 6.285123,1.31906 9.233726,0.95201 5.275374,-0.65669 11.042059,-0.43097 16.363637,-0.43097 25.747982,0 51.363552,-0.36528 77.090912,-0.36364 7.06847,4.4e-4 14.03829,0.0405 21.09091,0.34932 1.8192,0.0797 6.04175,0.59666 7.39562,-0.92536 1.56758,-1.76227 -2.88419,-2.31951 -3.75926,-2.47306 -3.41661,-0.59954 -7.74802,0.31761 -10.90909,-1.19979 -4.1121,-1.9739 -3.22369,-6.22934 -8.72727,-6.29517 -20.73914,-0.24804 -41.49573,0.30527 -62.18182,-0.16694 -6.27648,-0.14327 -12.657728,0.28342 -18.909093,0.0724 -4.011674,-0.13543 -7.970309,-1.01538 -12,-0.4798 m 192.000003,0 c -2.71216,0.36046 -6.07373,0.49534 -8.34792,2.21296 -1.17907,0.89051 -1.67842,2.59284 -3.00224,3.24607 -1.79264,0.88459 -5.79705,2.59222 -3.33811,5.50198 2.46442,2.91623 6.28513,1.31906 9.23373,0.95201 5.27539,-0.65672 11.04206,-0.43097 16.36363,-0.43097 25.74798,0 51.36355,-0.36528 77.09092,-0.36364 7.06849,4.4e-4 14.03826,0.0405 21.0909,0.34932 1.81925,0.0797 6.04173,0.59666 7.39565,-0.92536 1.5676,-1.76221 -2.88424,-2.31951 -3.75928,-2.47306 -3.41659,-0.59952 -7.748,0.31761 -10.90909,-1.19979 -4.11211,-1.9739 -3.2237,-6.22934 -8.72728,-6.29517 -20.73912,-0.24804 -41.49571,0.30527 -62.18182,-0.16694 -6.27647,-0.14327 -12.65773,0.28342 -18.90909,0.0724 -4.01167,-0.13543 -7.9703,-1.01538 -12,-0.4798 z"
       id="path1" />
  </g>
</svg>
